<?xml version="1.0" encoding="utf-8"?>
<!-- Generator: Adobe Illustrator 16.0.0, SVG Export Plug-In . SVG Version: 6.00 Build 0)  -->
<!DOCTYPE svg PUBLIC "-//W3C//DTD SVG 1.1//EN" "http://www.w3.org/Graphics/SVG/1.1/DTD/svg11.dtd">
<svg version="1.1" id="Black" xmlns="http://www.w3.org/2000/svg" xmlns:xlink="http://www.w3.org/1999/xlink" x="0px" y="0px"
	 width="508px" height="316px" viewBox="0 0 508 316" style="enable-background:new 0 0 508 316;" xml:space="preserve">
<style type="text/css">
<![CDATA[
	.st0{stroke:#000000;stroke-miterlimit:10;}
]]>
</style>
<g id="Logo_2_">
	<path class="st0" d="M320.2,165.1L320.2,165.1c0-0.2,0-0.3,0-0.4c0-0.1,0-0.2,0-0.3c0-0.1-0.1-0.2-0.1-0.3s-0.1-0.2-0.1-0.3
		c-0.1-0.1-0.1-0.2-0.2-0.2c-0.1-0.1-0.2-0.2-0.2-0.2l-0.1-0.1l-0.2-0.1c0,0-0.1-0.1-0.2-0.1H319c-0.1,0-0.2,0-0.3,0
		c-0.1,0-0.2,0-0.3,0c-0.2,0-0.3,0.1-0.4,0.1c-0.1,0-0.2,0.1-0.2,0.1c-0.1,0.1-0.2,0.1-0.3,0.2s-0.2,0.2-0.2,0.2l-0.1,0.1
		c-26.8,46.9-31.9,45.8-32.1,45.7c0,0-2.8-1.7,3.1-25.7v-0.2c0.2-0.8,0.3-1.4,0.4-1.7c0.1-0.5-0.1-1.1-0.4-1.5l-0.5-0.6
		c-0.4-0.4-0.9-0.6-1.4-0.6s-1,0.3-1.4,0.9c-2.5,3.6-24.3,35.2-30,40.4c-4.6,4.1-6,4.1-5.9,4.1c-0.4-0.3-0.6-2.4,2-12.7
		c1.8-7,2.3-9.4,1-10.8c-0.5-0.6-1.2-0.8-2-0.8c-4,0.4-5.4-8.2-5.7-10.9c-0.1-0.9-0.9-1.6-1.7-1.6h-0.1c-0.9,0.1-1.7,0.8-1.7,1.8
		c0,0.3-0.5,29-28.4,53.2c-0.7,0.6-0.8,1.8-0.2,2.5c0.3,0.4,0.8,0.6,1.3,0.6c0.4,0,0.8-0.2,1.2-0.4c19.4-16.8,26.1-35.9,28.4-46.7
		c1.8,3.8,4.2,4.9,6.1,5.1c-0.2,1.6-1,4.8-1.6,7.1c-2.3,8.8-3.5,14.8-0.4,16.6c2.2,1.3,5.2,0,10.2-4.5c4.7-4.3,18.9-24.4,26.2-34.8
		c-3.6,15.8-3.4,23,0.3,24.5c2.3,0.9,7.1,2.9,31.6-38.8c-1.5,11.4-4.1,38.6,4,47.2c0.6,0.7,1.8,0.7,2.5,0.1c0.3-0.3,0.5-0.8,0.6-1.2
		c0-0.5-0.2-0.9-0.5-1.3C313.3,209.8,318.3,171.6,320.2,165.1z"/>
	<path class="st0" d="M497.7,105.7c-2-1.4-4.5-1.5-6.2-0.3c-0.4,0.3-0.6,0.7-0.7,1.2c-0.1,0.5,0,0.9,0.3,1.3
		c0.3,0.4,0.7,0.6,1.1,0.7c0.5,0.1,0.9,0,1.3-0.3c0.3-0.2,1.2-0.3,2,0.3c1.1,0.7,4.2,4.1,0.6,16.4c-3.5,12-23.2,40.8-38.9,63.9
		l-1.5,2.1c4-22,6.6-40.6,6.9-42.8c0.1-1-0.5-1.9-1.5-2c-0.4-0.1-0.9,0.1-1.3,0.3c-0.4,0.3-0.6,0.7-0.7,1.2l-0.2,1.3
		c-0.1,0.1-0.2,0.2-0.3,0.3c-0.3,0.4-8.3,11-15.3,14.3c-1.6,0.8-2.3,0.7-2.4,0.6c-1.2-1.2,1.3-10,6.1-19.5c0.2-0.4,0.2-0.9,0.1-1.3
		c6.1-7.4,10.6-11.3,13.5-11.6c0.2,0,0.8-0.1,1,0.2c0.5,0.6,0.3,2.8-0.2,4.4c-0.2,0.5-0.1,0.9,0.1,1.4c0.2,0.4,0.6,0.7,1,0.9
		c0.5,0.2,0.9,0.1,1.4-0.1c0.4-0.2,0.8-0.6,0.9-1c0.3-0.9,1.6-5.3-0.4-7.7c-0.7-0.8-1.9-1.7-4.2-1.4c-8.7,1-22.6,21.3-35,39.2
		c-6.3,9.2-12.3,17.7-15.1,19.8c-2.5,1.9-3.5,1.8-3.8,1.8l0,0c-2.4-1,4.6-22.5,6.9-29.4c4.4-13,5.1-15.6,3.9-17.2
		c-0.4-0.6-1.1-0.8-1.8-0.7c-5.3,0.4-15.3,13.9-28.8,32.8c-3.1,4.4-6.3,8.8-8.3,11.4c0.7-3.2,2.3-8,3.4-11.3
		c3.2-9.6,3.7-11.6,2.3-12.8c-0.6-0.6-1.4-0.7-2.2-0.4c-8.2,3.4-17.1,1.9-21.9,0.6c-0.3-2.3-0.8-4.3-1.5-6c-1.5-3.9-3.9-6.2-6.9-6.6
		c-0.2,0-0.3,0-0.4,0c-2.6,0.3-4.4,1.1-5.4,2.5c-1.4,1.8-1.1,3.8-1,5c0.2,1.5,1.7,3.1,4.5,4.7c2.1,1.2,4.6,2.3,7.4,3.2
		c0.6,8.5-1.7,20.9-8,28.6c-4.2,5.1-8.9,7.6-12.3,6.6c-2.4-0.7-3.9-3.1-4.4-6.8c-1-7.9,5-21.6,9.5-27.3c1.5-1.9,2.2-2.1,2.2-2.1
		c1-0.1,1.7-1,1.6-2s-1-1.7-2-1.6c-1.4,0.2-2.9,1.3-4.6,3.5c-4.9,6.2-11.3,21-10.2,29.9c0.6,5.2,3.1,8.6,6.9,9.8
		c4.9,1.4,11-1.6,16.1-7.8c6.6-8.1,9.2-20.7,8.9-29.9c7.3,1.7,14.6,1.7,20.6-0.3c-0.6,2.1-1.7,5.4-2.5,7.9
		c-3.8,11.5-4.8,15.4-3.2,17.2c0.6,0.6,1.4,0.9,2.3,0.7c1.6-0.3,3.4-2.7,12.2-14.9c7.2-10,18.9-26.3,24.4-30.3
		c-0.7,2.9-2.5,8.2-3.9,12.5c-6.3,18.9-9.9,30.6-5.6,33.6c2.5,1.8,5.8-0.3,8-2.1c3.3-2.5,8.9-10.6,15.9-20.9
		c3.4-4.9,7.2-10.4,11-15.7c-2.4,6.7-2.7,11.1-0.9,13c1.4,1.4,3.6,1.5,6.4,0.1c4.9-2.3,10-7.4,13.1-11c-2.1,14.2-4.6,28.8-7.2,42.5
		c-4.3,6.3-9.1,13.5-12.1,18.5c-15.6,25.9-15.7,43.3-12,48.6c1,1.5,2.4,2.3,4,2.3c0.3,0,0.6,0,0.9-0.1c4.5-0.9,10.9-8.6,21.3-61.3
		c0.4-2.2,0.9-4.4,1.3-6.6c1.5-2.2,3-4.4,4.6-6.8l1.4-2c15.9-23.3,35.7-52.4,39.4-64.9C503.6,112.3,500.1,107.4,497.7,105.7z
		 M352.4,159.3c-3.1-1.5-4.1-2.7-4.1-2.8c-0.1-1-0.2-1.9,0.2-2.4s1.4-0.9,2.8-1.1c2,0.4,3.2,2.6,3.9,4.4c0.4,1.1,0.7,2.3,1,3.6
		C354.8,160.4,353.5,159.9,352.4,159.3z M430.9,264.1L430.9,264.1c-0.2,0-0.7,0.1-1.3-0.7c-3.3-4.7-1.8-21.8,12.1-44.8
		c1.7-2.9,4.1-6.5,7.4-11.4C442,242.5,435.4,263.2,430.9,264.1z"/>
	<path class="st0" d="M279.6,148.3c0.5-0.1,0.9-0.4,1.1-0.8s0.3-0.9,0.2-1.3c-0.1-0.5-0.4-0.9-0.8-1.1c-0.4-0.2-0.9-0.3-1.3-0.2
		c-100.2,24.2-161.9,63.7-162.5,64.1c-0.4,0.3-0.7,0.7-0.8,1.1c-0.1,0.5,0,0.9,0.2,1.3c0.5,0.8,1.7,1,2.5,0.5
		c0.3-0.2,30.4-19.4,82-39c-1.7,16.5-13.4,128.2-11.6,135.7c0.2,0.8,0.9,1.4,1.7,1.4c0.1,0,0.3,0,0.4-0.1c0.5-0.1,0.8-0.4,1.1-0.8
		c0.3-0.4,0.3-0.9,0.2-1.3c-1.5-6,8-100.1,11.8-136.2C228.5,162.3,254,154.5,279.6,148.3z"/>
	<path class="st0" d="M110.1,160L110.1,160c-0.5,0-0.9-0.1-1.3,0.2c-0.4,0.2-0.7,0.6-0.8,1.1c-2.7,9.8-38.3,50.2-68.7,50.2
		c-9.2,0-16.4-3-21.5-9c-8.6-10.1-11.4-29.4-7.6-52.8c3.7-22.8,15.4-52,30.5-76.2C56.8,47.8,73.2,33,85.8,33c5.3,0,9.2,2,11.8,6.1
		c9.1,14.2,0.6,48.4-2.7,55.6c-0.2,0.4-0.2,0.9,0,1.4c0.2,0.4,0.5,0.8,0.9,1c0.4,0.2,0.9,0.2,1.4,0c0.4-0.2,0.8-0.5,1-0.9
		c2.8-6.2,12.8-42.8,2.4-59c-3.3-5.1-8.3-7.8-14.8-7.8C55,29.4,14,104,6.7,149c-2.3,14.4-4.4,40.7,8.4,55.7
		C20.9,211.5,29,215,39.3,215c32.6,0,69.2-42.2,72.1-52.9C111.6,161.2,111,160,110.1,160z"/>
	<path class="st0" d="M128.6,79.2c1.1,4.6-1,28.5-3.5,49.5c0,0.1,0,0.2,0,0.3c-0.4,3.5-0.8,6.5-1,8.2c-0.1,0.5,0.1,0.9,0.3,1.3
		c0.3,0.4,0.7,0.6,1.2,0.7c0.1,0,0.2,0,0.2,0c0.9,0,1.6-0.7,1.8-1.5c0-0.1,0.5-3.3,1.1-8.2v-0.1c11.7-20.5,16.2-23.7,17.8-24
		c0.7,1.2,0.5,5.9,0.4,8.8c-0.2,6-0.4,12.2,2.3,15c0.9,1,2.1,1.5,3.5,1.5c8.2,0,20.8-17.6,23.8-30.3c1.1,0.3,2.3,0.3,3.6,0.3
		c0.4,1.2-0.1,6-0.4,8.5c-0.8,7.3-1.7,15.6,1.9,19.5c1.3,1.4,3,2.1,5,2.1c6,0,16.1-10.2,21.6-25.2c0.4,2,1.1,3.5,2.2,4.7
		c1.7,1.9,4.2,2.8,7.7,2.8c7.7,0,17.7-16.2,24-31.9c0.2,0.8,0.4,1.6,0.6,2.3c0.9,3.7,1.9,7.9,2.7,11.8c-5,7.9-9,14.8-6.9,18.6
		c0.9,1.7,2.7,2.5,5.4,2.5c2,0,3.6-0.7,4.7-2.2c2.3-2.9,2.4-8.5,0.6-18.3c0.7-1,1.3-2.1,2-3.1l0.3-0.4c3.1-4.9,6.7-10.4,9.7-15.9
		c3.1-5.7,6-11.9,8.7-18.4c0.2,8.2,1,15.2,2.3,20.3c2.1,8.1,5.5,12.2,10.3,12.2c6,0,14.1-9.3,19.8-18.7c-1.2,7.3-1.7,15.4,1.8,19.8
		c1.7,2.1,4.1,3.2,7.3,3.2c12.6,0,23.7-25.6,29.6-39.4c0.2-0.5,0.4-0.9,0.6-1.4c-0.3,3.4-0.8,7.5-1.2,10.7V65
		c-0.6,4.7-1.1,8.7-1.1,10.4c0,1,0.8,1.8,1.8,1.8s1.8-0.8,1.8-1.8c0-6.6,16.5-29.4,21.7-30.2c0.9,1.8-0.6,12.7-1.5,18.6
		c-2.1,15.2-4.5,32.5,0.8,38.7c1.4,1.6,3.2,2.4,5.3,2.4c9.5,0,16.5-18.1,23.9-37.3c1.1-2.9,2.2-5.6,3.2-8.2c0,2.6,0.4,4.6,1.3,6.1
		c1.1,1.9,2.9,2.9,5.1,2.9c5.3,0,8.7-4,10.8-7.9c0.5,3,1.5,5.2,3.2,7c3,3.1,8.1,4.7,15.6,4.7c16.1,0,33.7-11.7,35.9-16.4
		c0.2-0.4,0.2-0.9,0.1-1.4c-0.2-0.4-0.5-0.8-0.9-1c-0.4-0.2-0.9-0.2-1.4,0c-0.4,0.2-0.8,0.5-1,0.9c-1.6,3.4-17.7,14.4-32.6,14.4
		c-6.5,0-10.8-1.2-13.1-3.6c-2.8-2.9-2.6-7.6-2.4-12.5c0-1.2,0.1-2.5,0.1-3.7c0-1-0.8-1.8-1.8-1.8s-1.8,0.8-1.8,1.8
		c0,3.2-3.4,15.9-10.6,15.9c-0.9,0-1.6-0.3-2-1.1c-2.4-4.2,1-16.4,2.7-19.9c3.1-5.7,5.9-8.6,8.2-8.6c1.1,0,1.3,0.4,1.4,0.5
		c0.7,0.9,0.3,3.2,0,4.1c-0.3,0.9,0.2,1.9,1.1,2.2c0.9,0.3,1.9-0.2,2.2-1.1c0.2-0.5,1.5-4.6-0.4-7.3c-0.6-0.9-1.9-2-4.3-2
		c-8.3,0-14.5,16.1-21.7,34.7c-6,15.6-13.5,35-20.6,35c-1.1,0-1.9-0.4-2.6-1.2c-4.3-4.9-1.8-22.8,0-35.8c1.8-13,2.6-19.3,0.5-21.7
		c-0.6-0.6-1.3-1-2.1-1c-5.5,0-15.1,12-20.8,21.7c1.9-15.4,1.7-17,0-17.8c-0.6-0.3-1.6-0.3-2.4,0.5s-1.6,2.7-3.9,8
		c-5.2,12.1-16.1,37.3-26.4,37.3c-2,0-3.5-0.6-4.5-1.8c-3.8-4.7-1.1-17.2,0.8-26.4l0.1-0.3c0.4-1.7,0.7-3.4,1-4.8
		c0.4-1.4,0.6-2.7,0.6-3.7c0-0.9-0.7-1.7-1.7-1.8c-0.1,0-0.1,0-0.2,0c-0.9,0-1.6,0.7-1.7,1.6c-0.1,1-0.3,2.1-0.6,3.6
		c-3,10.7-16.6,29.5-22.7,29.5c-2.2,0-4.1-1.9-5.6-5.6c-3.4-8.4-3.8-22.5-3.5-32.9c1-3,2-6,2.9-9.1c24.9-1.4,34.7-7.2,38.4-11.8
		c3.2-3.9,2.5-7.2,2.5-7.3c-0.1-0.5-0.4-0.9-0.8-1.1c-0.4-0.3-0.9-0.4-1.3-0.3c-1,0.2-1.6,1.1-1.4,2.1c0,0,0.3,2-1.7,4.4
		c-2.6,3.2-10.7,8.8-34.7,10.4c1.9-7,5.7-26.6,3.3-29.7c-0.6-0.8-1.5-1.1-2.8-1.1c-5.1,0-7.3,19.9-7.3,31.1
		c-2.4,0.1-4.5,0.1-6.6,0.1c-63.4,0-64.1,21.6-64.1,21.8c0,1,0.8,1.8,1.8,1.8s1.8-0.8,1.8-1.7c0-0.2,2.8-18.3,60.6-18.3
		c2,0,4.1,0,6.4-0.1c-0.2,2.9-0.3,5.7-0.4,8.3C267,57.7,262.9,67,258.5,75c-2.9,5.3-6.3,10.6-9.6,15.6l-0.4,0.5
		c-0.6-2.8-1.3-5.6-2-8.4c-0.6-2.6-1.2-5.1-1.8-7.5c2.1-6.2,3.3-11.4,3.3-14.7c0-2.6-0.2-4.7-0.7-6.2c-0.8-2.6-2.1-3.1-3.1-3.1
		c-3.5,0-4.8,6.8-4.8,13.1c0,2.4,0.5,5.7,1.6,10.6c-5.8,16.4-16.5,34.6-22.5,34.6c-2.4,0-4.1-0.5-5.1-1.6c-2.4-2.6-1.9-8.9-1.2-17
		c0.1-0.6,0.1-1.3,0.2-2c0.1-0.7,0.1-1.4,0.2-2.1c0-0.5-0.1-0.9-0.4-1.3c-0.3-0.4-0.7-0.6-1.2-0.6s-0.9,0.1-1.3,0.4
		c-0.4,0.3-0.6,0.7-0.6,1.2c-0.1,0.7-0.1,1.4-0.2,2c-2.2,22.4-16.5,38.7-21.9,38.7c-1.1,0-1.8-0.3-2.4-1c-2.5-2.7-1.6-10.5-1-16.7
		c0.7-6.4,1-9.8-0.6-11.5c-0.6-0.6-1.4-0.9-2.3-0.9c-1.2,0.1-2.3,0-3.2-0.3c0.1-0.6,0.1-1.2,0.1-1.8c0-3.7-0.7-5.7-2.2-6.3
		c-0.9-0.4-1.9-0.1-2.7,0.7c-1.3,1.4-1.9,4.5-0.6,7.2c0.4,0.8,0.9,1.5,1.5,2.1c-2.4,12.3-14.9,28.4-20.5,28.4c-0.4,0-0.7-0.1-1-0.4
		c-1.7-1.7-1.5-7.9-1.3-12.5c0.2-6,0.2-9.8-1.5-11.6c-0.6-0.6-1.4-1-2.3-1c-3.8,0-9,5.9-16.9,18.9c4.8-43.1,1.8-44.5,0.7-44.9
		c-5.7-2.5-19.3,15.9-20.8,18.9c-0.4,0.9-0.1,1.9,0.8,2.4c0.4,0.2,0.9,0.2,1.4,0.1s0.8-0.5,1-0.9C115.8,90.2,125.8,80.2,128.6,79.2z
		 M277.9,9.9c0.6,2.7-2.7,19.6-3.9,24.5C274.6,24.8,276.2,13.1,277.9,9.9z M246.3,100.6c0.9,6.1,0.7,9.9-0.5,11.6
		c-0.4,0.6-1,0.8-1.9,0.8c-1.3,0-2.1-0.2-2.3-0.7C240.6,110.4,244.2,104.1,246.3,100.6z M243.7,55.9c0.2,0.9,0.4,2.3,0.4,4.6
		c0,1.8-0.4,4.3-1.2,7.3c-0.2-1.3-0.3-2.5-0.3-3.4C242.6,60.2,243.2,57.5,243.7,55.9z"/>
</g>
</svg>
